<svg width="24" height="24" viewBox="0 0 24 24" fill="none" xmlns="http://www.w3.org/2000/svg">
<path d="M12 24C18.6274 24 24 18.6274 24 12C24 5.37258 18.6274 0 12 0C5.37258 0 0 5.37258 0 12C0 18.6274 5.37258 24 12 24Z" fill="#F1F1F2"/>
<path d="M2 11.9999C2 13.2231 2.22004 14.3948 2.62199 15.4782L12 16.3477L21.378 15.4782C21.78 14.3948 22 13.2231 22 11.9999C22 10.7767 21.78 9.60499 21.378 8.52167L12 7.6521L2.62199 8.52167C2.22004 9.60499 2 10.7767 2 11.9999Z" fill="#FFDA44"/>
<path d="M21.3781 8.52176C19.9652 4.71379 16.2997 2 12.0001 2C7.70043 2 4.035 4.71379 2.62207 8.52176H21.3781Z" fill="#D80027"/>
<path d="M2.62207 15.4783C4.035 19.2862 7.70043 22 12.0001 22C16.2997 22 19.9652 19.2862 21.3781 15.4783H2.62207Z" fill="#D80027"/>
</svg>
